<mxfile host="65bd71144e">
    <diagram id="odoTBlzuxBAntz79cwXw" name="(25+3*8)+16">
        <mxGraphModel dx="852" dy="508" grid="1" gridSize="10" guides="1" tooltips="1" connect="1" arrows="1" fold="1" page="1" pageScale="1" pageWidth="827" pageHeight="1169" math="0" shadow="0">
            <root>
                <mxCell id="oE5KcrY9RmaaiyEqwb-2-0"/>
                <mxCell id="oE5KcrY9RmaaiyEqwb-2-1" parent="oE5KcrY9RmaaiyEqwb-2-0"/>
                <mxCell id="oE5KcrY9RmaaiyEqwb-2-39" style="edgeStyle=none;html=1;entryX=0.5;entryY=0;entryDx=0;entryDy=0;" edge="1" parent="oE5KcrY9RmaaiyEqwb-2-1" source="oE5KcrY9RmaaiyEqwb-2-3" target="oE5KcrY9RmaaiyEqwb-2-12">
                    <mxGeometry relative="1" as="geometry"/>
                </mxCell>
                <mxCell id="oE5KcrY9RmaaiyEqwb-2-41" style="edgeStyle=none;html=1;entryX=0.5;entryY=0;entryDx=0;entryDy=0;" edge="1" parent="oE5KcrY9RmaaiyEqwb-2-1" source="oE5KcrY9RmaaiyEqwb-2-3" target="oE5KcrY9RmaaiyEqwb-2-11">
                    <mxGeometry relative="1" as="geometry"/>
                </mxCell>
                <mxCell id="oE5KcrY9RmaaiyEqwb-2-46" style="edgeStyle=none;html=1;entryX=0.5;entryY=0;entryDx=0;entryDy=0;" edge="1" parent="oE5KcrY9RmaaiyEqwb-2-1" source="oE5KcrY9RmaaiyEqwb-2-3" target="oE5KcrY9RmaaiyEqwb-2-45">
                    <mxGeometry relative="1" as="geometry"/>
                </mxCell>
                <mxCell id="oE5KcrY9RmaaiyEqwb-2-3" value="exp" style="rounded=0;whiteSpace=wrap;html=1;" vertex="1" parent="oE5KcrY9RmaaiyEqwb-2-1">
                    <mxGeometry x="480" y="40" width="120" height="40" as="geometry"/>
                </mxCell>
                <mxCell id="oE5KcrY9RmaaiyEqwb-2-8" style="edgeStyle=none;html=1;entryX=0.5;entryY=0;entryDx=0;entryDy=0;" edge="1" parent="oE5KcrY9RmaaiyEqwb-2-1" source="oE5KcrY9RmaaiyEqwb-2-11" target="oE5KcrY9RmaaiyEqwb-2-19">
                    <mxGeometry relative="1" as="geometry"/>
                </mxCell>
                <mxCell id="oE5KcrY9RmaaiyEqwb-2-9" style="edgeStyle=none;html=1;entryX=0.5;entryY=0;entryDx=0;entryDy=0;" edge="1" parent="oE5KcrY9RmaaiyEqwb-2-1" source="oE5KcrY9RmaaiyEqwb-2-11" target="oE5KcrY9RmaaiyEqwb-2-18">
                    <mxGeometry relative="1" as="geometry"/>
                </mxCell>
                <mxCell id="oE5KcrY9RmaaiyEqwb-2-10" style="edgeStyle=none;html=1;entryX=0.5;entryY=0;entryDx=0;entryDy=0;" edge="1" parent="oE5KcrY9RmaaiyEqwb-2-1" source="oE5KcrY9RmaaiyEqwb-2-11" target="oE5KcrY9RmaaiyEqwb-2-20">
                    <mxGeometry relative="1" as="geometry"/>
                </mxCell>
                <mxCell id="oE5KcrY9RmaaiyEqwb-2-11" value="exp" style="rounded=0;whiteSpace=wrap;html=1;" vertex="1" parent="oE5KcrY9RmaaiyEqwb-2-1">
                    <mxGeometry x="320" y="120" width="120" height="40" as="geometry"/>
                </mxCell>
                <mxCell id="oE5KcrY9RmaaiyEqwb-2-12" value="+" style="ellipse;whiteSpace=wrap;html=1;aspect=fixed;" vertex="1" parent="oE5KcrY9RmaaiyEqwb-2-1">
                    <mxGeometry x="520" y="120" width="40" height="40" as="geometry"/>
                </mxCell>
                <mxCell id="oE5KcrY9RmaaiyEqwb-2-13" value="" style="edgeStyle=none;html=1;" edge="1" parent="oE5KcrY9RmaaiyEqwb-2-1" source="oE5KcrY9RmaaiyEqwb-2-14" target="oE5KcrY9RmaaiyEqwb-2-22">
                    <mxGeometry relative="1" as="geometry"/>
                </mxCell>
                <mxCell id="oE5KcrY9RmaaiyEqwb-2-14" value="factor" style="rounded=0;whiteSpace=wrap;html=1;" vertex="1" parent="oE5KcrY9RmaaiyEqwb-2-1">
                    <mxGeometry x="680" y="200" width="120" height="40" as="geometry"/>
                </mxCell>
                <mxCell id="oE5KcrY9RmaaiyEqwb-2-16" value="" style="edgeStyle=none;html=1;" edge="1" parent="oE5KcrY9RmaaiyEqwb-2-1" source="oE5KcrY9RmaaiyEqwb-2-18" target="oE5KcrY9RmaaiyEqwb-2-26">
                    <mxGeometry relative="1" as="geometry"/>
                </mxCell>
                <mxCell id="oE5KcrY9RmaaiyEqwb-2-17" style="edgeStyle=none;html=1;entryX=0.5;entryY=0;entryDx=0;entryDy=0;" edge="1" parent="oE5KcrY9RmaaiyEqwb-2-1" source="oE5KcrY9RmaaiyEqwb-2-18" target="oE5KcrY9RmaaiyEqwb-2-28">
                    <mxGeometry relative="1" as="geometry"/>
                </mxCell>
                <mxCell id="oE5KcrY9RmaaiyEqwb-2-44" style="edgeStyle=none;html=1;entryX=0.5;entryY=0;entryDx=0;entryDy=0;" edge="1" parent="oE5KcrY9RmaaiyEqwb-2-1" source="oE5KcrY9RmaaiyEqwb-2-18" target="oE5KcrY9RmaaiyEqwb-2-42">
                    <mxGeometry relative="1" as="geometry"/>
                </mxCell>
                <mxCell id="oE5KcrY9RmaaiyEqwb-2-18" value="exp" style="rounded=0;whiteSpace=wrap;html=1;" vertex="1" parent="oE5KcrY9RmaaiyEqwb-2-1">
                    <mxGeometry x="160" y="200" width="120" height="40" as="geometry"/>
                </mxCell>
                <mxCell id="oE5KcrY9RmaaiyEqwb-2-19" value=")" style="ellipse;whiteSpace=wrap;html=1;aspect=fixed;" vertex="1" parent="oE5KcrY9RmaaiyEqwb-2-1">
                    <mxGeometry x="360" y="200" width="40" height="40" as="geometry"/>
                </mxCell>
                <mxCell id="oE5KcrY9RmaaiyEqwb-2-20" value="(" style="ellipse;whiteSpace=wrap;html=1;aspect=fixed;" vertex="1" parent="oE5KcrY9RmaaiyEqwb-2-1">
                    <mxGeometry x="40" y="200" width="40" height="40" as="geometry"/>
                </mxCell>
                <mxCell id="oE5KcrY9RmaaiyEqwb-2-21" value="" style="edgeStyle=none;html=1;" edge="1" parent="oE5KcrY9RmaaiyEqwb-2-1" source="oE5KcrY9RmaaiyEqwb-2-22" target="oE5KcrY9RmaaiyEqwb-2-23">
                    <mxGeometry relative="1" as="geometry"/>
                </mxCell>
                <mxCell id="oE5KcrY9RmaaiyEqwb-2-22" value="numero" style="rounded=0;whiteSpace=wrap;html=1;" vertex="1" parent="oE5KcrY9RmaaiyEqwb-2-1">
                    <mxGeometry x="680" y="280" width="120" height="40" as="geometry"/>
                </mxCell>
                <mxCell id="oE5KcrY9RmaaiyEqwb-2-23" value="16" style="rounded=0;whiteSpace=wrap;html=1;" vertex="1" parent="oE5KcrY9RmaaiyEqwb-2-1">
                    <mxGeometry x="680" y="360" width="120" height="40" as="geometry"/>
                </mxCell>
                <mxCell id="oE5KcrY9RmaaiyEqwb-2-24" value="" style="edgeStyle=none;html=1;" edge="1" parent="oE5KcrY9RmaaiyEqwb-2-1" source="oE5KcrY9RmaaiyEqwb-2-25" target="oE5KcrY9RmaaiyEqwb-2-32">
                    <mxGeometry relative="1" as="geometry"/>
                </mxCell>
                <mxCell id="oE5KcrY9RmaaiyEqwb-2-25" value="factor" style="rounded=0;whiteSpace=wrap;html=1;" vertex="1" parent="oE5KcrY9RmaaiyEqwb-2-1">
                    <mxGeometry x="440" y="360" width="120" height="40" as="geometry"/>
                </mxCell>
                <mxCell id="oE5KcrY9RmaaiyEqwb-2-26" value="+" style="ellipse;whiteSpace=wrap;html=1;aspect=fixed;" vertex="1" parent="oE5KcrY9RmaaiyEqwb-2-1">
                    <mxGeometry x="200" y="280" width="40" height="40" as="geometry"/>
                </mxCell>
                <mxCell id="oE5KcrY9RmaaiyEqwb-2-27" value="" style="edgeStyle=none;html=1;" edge="1" parent="oE5KcrY9RmaaiyEqwb-2-1" source="oE5KcrY9RmaaiyEqwb-2-28" target="oE5KcrY9RmaaiyEqwb-2-30">
                    <mxGeometry relative="1" as="geometry"/>
                </mxCell>
                <mxCell id="oE5KcrY9RmaaiyEqwb-2-28" value="exp" style="rounded=0;whiteSpace=wrap;html=1;" vertex="1" parent="oE5KcrY9RmaaiyEqwb-2-1">
                    <mxGeometry y="280" width="120" height="40" as="geometry"/>
                </mxCell>
                <mxCell id="oE5KcrY9RmaaiyEqwb-2-29" value="" style="edgeStyle=none;html=1;" edge="1" parent="oE5KcrY9RmaaiyEqwb-2-1" source="oE5KcrY9RmaaiyEqwb-2-30" target="oE5KcrY9RmaaiyEqwb-2-34">
                    <mxGeometry relative="1" as="geometry"/>
                </mxCell>
                <mxCell id="oE5KcrY9RmaaiyEqwb-2-30" value="term" style="rounded=0;whiteSpace=wrap;html=1;" vertex="1" parent="oE5KcrY9RmaaiyEqwb-2-1">
                    <mxGeometry y="360" width="120" height="40" as="geometry"/>
                </mxCell>
                <mxCell id="oE5KcrY9RmaaiyEqwb-2-31" value="" style="edgeStyle=none;html=1;" edge="1" parent="oE5KcrY9RmaaiyEqwb-2-1" source="oE5KcrY9RmaaiyEqwb-2-32" target="oE5KcrY9RmaaiyEqwb-2-37">
                    <mxGeometry relative="1" as="geometry"/>
                </mxCell>
                <mxCell id="oE5KcrY9RmaaiyEqwb-2-32" value="numero" style="rounded=0;whiteSpace=wrap;html=1;" vertex="1" parent="oE5KcrY9RmaaiyEqwb-2-1">
                    <mxGeometry x="440" y="440" width="120" height="40" as="geometry"/>
                </mxCell>
                <mxCell id="oE5KcrY9RmaaiyEqwb-2-33" value="" style="edgeStyle=none;html=1;" edge="1" parent="oE5KcrY9RmaaiyEqwb-2-1" source="oE5KcrY9RmaaiyEqwb-2-34" target="oE5KcrY9RmaaiyEqwb-2-36">
                    <mxGeometry relative="1" as="geometry"/>
                </mxCell>
                <mxCell id="oE5KcrY9RmaaiyEqwb-2-34" value="factor" style="rounded=0;whiteSpace=wrap;html=1;" vertex="1" parent="oE5KcrY9RmaaiyEqwb-2-1">
                    <mxGeometry y="440" width="120" height="40" as="geometry"/>
                </mxCell>
                <mxCell id="oE5KcrY9RmaaiyEqwb-2-35" value="" style="edgeStyle=none;html=1;" edge="1" parent="oE5KcrY9RmaaiyEqwb-2-1" source="oE5KcrY9RmaaiyEqwb-2-36" target="oE5KcrY9RmaaiyEqwb-2-38">
                    <mxGeometry relative="1" as="geometry"/>
                </mxCell>
                <mxCell id="oE5KcrY9RmaaiyEqwb-2-36" value="numero" style="rounded=0;whiteSpace=wrap;html=1;" vertex="1" parent="oE5KcrY9RmaaiyEqwb-2-1">
                    <mxGeometry y="520" width="120" height="40" as="geometry"/>
                </mxCell>
                <mxCell id="oE5KcrY9RmaaiyEqwb-2-37" value="3" style="rounded=0;whiteSpace=wrap;html=1;" vertex="1" parent="oE5KcrY9RmaaiyEqwb-2-1">
                    <mxGeometry x="440" y="520" width="120" height="40" as="geometry"/>
                </mxCell>
                <mxCell id="oE5KcrY9RmaaiyEqwb-2-38" value="25" style="rounded=0;whiteSpace=wrap;html=1;" vertex="1" parent="oE5KcrY9RmaaiyEqwb-2-1">
                    <mxGeometry y="600" width="120" height="40" as="geometry"/>
                </mxCell>
                <mxCell id="v28Z3PnxdiP7mnt8VoK2-8" style="edgeStyle=none;html=1;entryX=0.5;entryY=0;entryDx=0;entryDy=0;" edge="1" parent="oE5KcrY9RmaaiyEqwb-2-1" source="oE5KcrY9RmaaiyEqwb-2-42" target="v28Z3PnxdiP7mnt8VoK2-6">
                    <mxGeometry relative="1" as="geometry"/>
                </mxCell>
                <mxCell id="v28Z3PnxdiP7mnt8VoK2-10" style="edgeStyle=none;html=1;entryX=0.5;entryY=0;entryDx=0;entryDy=0;" edge="1" parent="oE5KcrY9RmaaiyEqwb-2-1" source="oE5KcrY9RmaaiyEqwb-2-42" target="v28Z3PnxdiP7mnt8VoK2-7">
                    <mxGeometry relative="1" as="geometry"/>
                </mxCell>
                <mxCell id="v28Z3PnxdiP7mnt8VoK2-11" style="edgeStyle=none;html=1;entryX=0.5;entryY=0;entryDx=0;entryDy=0;" edge="1" parent="oE5KcrY9RmaaiyEqwb-2-1" source="oE5KcrY9RmaaiyEqwb-2-42" target="oE5KcrY9RmaaiyEqwb-2-25">
                    <mxGeometry relative="1" as="geometry"/>
                </mxCell>
                <mxCell id="oE5KcrY9RmaaiyEqwb-2-42" value="term" style="rounded=0;whiteSpace=wrap;html=1;" vertex="1" parent="oE5KcrY9RmaaiyEqwb-2-1">
                    <mxGeometry x="320" y="280" width="120" height="40" as="geometry"/>
                </mxCell>
                <mxCell id="oE5KcrY9RmaaiyEqwb-2-47" value="" style="edgeStyle=none;html=1;" edge="1" parent="oE5KcrY9RmaaiyEqwb-2-1" source="oE5KcrY9RmaaiyEqwb-2-45" target="oE5KcrY9RmaaiyEqwb-2-14">
                    <mxGeometry relative="1" as="geometry"/>
                </mxCell>
                <mxCell id="oE5KcrY9RmaaiyEqwb-2-45" value="term" style="rounded=0;whiteSpace=wrap;html=1;" vertex="1" parent="oE5KcrY9RmaaiyEqwb-2-1">
                    <mxGeometry x="680" y="120" width="120" height="40" as="geometry"/>
                </mxCell>
                <mxCell id="v28Z3PnxdiP7mnt8VoK2-0" value="" style="edgeStyle=none;html=1;" edge="1" parent="oE5KcrY9RmaaiyEqwb-2-1" source="v28Z3PnxdiP7mnt8VoK2-1" target="v28Z3PnxdiP7mnt8VoK2-3">
                    <mxGeometry relative="1" as="geometry"/>
                </mxCell>
                <mxCell id="v28Z3PnxdiP7mnt8VoK2-1" value="factor" style="rounded=0;whiteSpace=wrap;html=1;" vertex="1" parent="oE5KcrY9RmaaiyEqwb-2-1">
                    <mxGeometry x="200" y="440" width="120" height="40" as="geometry"/>
                </mxCell>
                <mxCell id="v28Z3PnxdiP7mnt8VoK2-2" value="" style="edgeStyle=none;html=1;" edge="1" parent="oE5KcrY9RmaaiyEqwb-2-1" source="v28Z3PnxdiP7mnt8VoK2-3" target="v28Z3PnxdiP7mnt8VoK2-4">
                    <mxGeometry relative="1" as="geometry"/>
                </mxCell>
                <mxCell id="v28Z3PnxdiP7mnt8VoK2-3" value="numero" style="rounded=0;whiteSpace=wrap;html=1;" vertex="1" parent="oE5KcrY9RmaaiyEqwb-2-1">
                    <mxGeometry x="200" y="520" width="120" height="40" as="geometry"/>
                </mxCell>
                <mxCell id="v28Z3PnxdiP7mnt8VoK2-4" value="3" style="rounded=0;whiteSpace=wrap;html=1;" vertex="1" parent="oE5KcrY9RmaaiyEqwb-2-1">
                    <mxGeometry x="200" y="600" width="120" height="40" as="geometry"/>
                </mxCell>
                <mxCell id="v28Z3PnxdiP7mnt8VoK2-9" style="edgeStyle=none;html=1;" edge="1" parent="oE5KcrY9RmaaiyEqwb-2-1" source="v28Z3PnxdiP7mnt8VoK2-6" target="v28Z3PnxdiP7mnt8VoK2-1">
                    <mxGeometry relative="1" as="geometry"/>
                </mxCell>
                <mxCell id="v28Z3PnxdiP7mnt8VoK2-6" value="term" style="rounded=0;whiteSpace=wrap;html=1;" vertex="1" parent="oE5KcrY9RmaaiyEqwb-2-1">
                    <mxGeometry x="200" y="360" width="120" height="40" as="geometry"/>
                </mxCell>
                <mxCell id="v28Z3PnxdiP7mnt8VoK2-7" value="*" style="ellipse;whiteSpace=wrap;html=1;aspect=fixed;" vertex="1" parent="oE5KcrY9RmaaiyEqwb-2-1">
                    <mxGeometry x="360" y="360" width="40" height="40" as="geometry"/>
                </mxCell>
            </root>
        </mxGraphModel>
    </diagram>
    <diagram id="Ir9J3GNI-JOhGskQqsDu" name="(34-3)*42">
        <mxGraphModel dx="1022" dy="609" grid="1" gridSize="10" guides="1" tooltips="1" connect="1" arrows="1" fold="1" page="1" pageScale="1" pageWidth="827" pageHeight="1169" math="0" shadow="0">
            <root>
                <mxCell id="YWtjegUGBLc0cIIiLabK-0"/>
                <mxCell id="YWtjegUGBLc0cIIiLabK-1" parent="YWtjegUGBLc0cIIiLabK-0"/>
                <mxCell id="bbGmwCBVAF5unC0VcgnG-2" value="" style="edgeStyle=none;html=1;" edge="1" parent="YWtjegUGBLc0cIIiLabK-1" source="bbGmwCBVAF5unC0VcgnG-0" target="bbGmwCBVAF5unC0VcgnG-1">
                    <mxGeometry relative="1" as="geometry"/>
                </mxCell>
                <mxCell id="bbGmwCBVAF5unC0VcgnG-0" value="exp" style="rounded=0;whiteSpace=wrap;html=1;" vertex="1" parent="YWtjegUGBLc0cIIiLabK-1">
                    <mxGeometry x="560" y="40" width="120" height="40" as="geometry"/>
                </mxCell>
                <mxCell id="bbGmwCBVAF5unC0VcgnG-5" style="edgeStyle=none;html=1;entryX=0.5;entryY=0;entryDx=0;entryDy=0;" edge="1" parent="YWtjegUGBLc0cIIiLabK-1" source="bbGmwCBVAF5unC0VcgnG-1" target="bbGmwCBVAF5unC0VcgnG-4">
                    <mxGeometry relative="1" as="geometry"/>
                </mxCell>
                <mxCell id="bbGmwCBVAF5unC0VcgnG-9" style="edgeStyle=none;html=1;entryX=0.5;entryY=0;entryDx=0;entryDy=0;" edge="1" parent="YWtjegUGBLc0cIIiLabK-1" source="bbGmwCBVAF5unC0VcgnG-1" target="bbGmwCBVAF5unC0VcgnG-8">
                    <mxGeometry relative="1" as="geometry"/>
                </mxCell>
                <mxCell id="bbGmwCBVAF5unC0VcgnG-10" style="edgeStyle=none;html=1;entryX=0.5;entryY=0;entryDx=0;entryDy=0;" edge="1" parent="YWtjegUGBLc0cIIiLabK-1" source="bbGmwCBVAF5unC0VcgnG-1" target="bbGmwCBVAF5unC0VcgnG-7">
                    <mxGeometry relative="1" as="geometry"/>
                </mxCell>
                <mxCell id="bbGmwCBVAF5unC0VcgnG-1" value="term" style="rounded=0;whiteSpace=wrap;html=1;" vertex="1" parent="YWtjegUGBLc0cIIiLabK-1">
                    <mxGeometry x="560" y="120" width="120" height="40" as="geometry"/>
                </mxCell>
                <mxCell id="bbGmwCBVAF5unC0VcgnG-18" style="edgeStyle=none;html=1;entryX=0.5;entryY=0;entryDx=0;entryDy=0;" edge="1" parent="YWtjegUGBLc0cIIiLabK-1" source="bbGmwCBVAF5unC0VcgnG-4" target="bbGmwCBVAF5unC0VcgnG-16">
                    <mxGeometry relative="1" as="geometry"/>
                </mxCell>
                <mxCell id="bbGmwCBVAF5unC0VcgnG-19" style="edgeStyle=none;html=1;entryX=0.5;entryY=0;entryDx=0;entryDy=0;" edge="1" parent="YWtjegUGBLc0cIIiLabK-1" source="bbGmwCBVAF5unC0VcgnG-4" target="bbGmwCBVAF5unC0VcgnG-15">
                    <mxGeometry relative="1" as="geometry"/>
                </mxCell>
                <mxCell id="bbGmwCBVAF5unC0VcgnG-20" style="edgeStyle=none;html=1;entryX=0.5;entryY=0;entryDx=0;entryDy=0;" edge="1" parent="YWtjegUGBLc0cIIiLabK-1" source="bbGmwCBVAF5unC0VcgnG-4" target="bbGmwCBVAF5unC0VcgnG-17">
                    <mxGeometry relative="1" as="geometry"/>
                </mxCell>
                <mxCell id="bbGmwCBVAF5unC0VcgnG-4" value="term" style="rounded=0;whiteSpace=wrap;html=1;" vertex="1" parent="YWtjegUGBLc0cIIiLabK-1">
                    <mxGeometry x="440" y="200" width="120" height="40" as="geometry"/>
                </mxCell>
                <mxCell id="bbGmwCBVAF5unC0VcgnG-7" value="*" style="ellipse;whiteSpace=wrap;html=1;aspect=fixed;" vertex="1" parent="YWtjegUGBLc0cIIiLabK-1">
                    <mxGeometry x="600" y="200" width="40" height="40" as="geometry"/>
                </mxCell>
                <mxCell id="bbGmwCBVAF5unC0VcgnG-22" value="" style="edgeStyle=none;html=1;" edge="1" parent="YWtjegUGBLc0cIIiLabK-1" source="bbGmwCBVAF5unC0VcgnG-8" target="bbGmwCBVAF5unC0VcgnG-21">
                    <mxGeometry relative="1" as="geometry"/>
                </mxCell>
                <mxCell id="bbGmwCBVAF5unC0VcgnG-8" value="factor" style="rounded=0;whiteSpace=wrap;html=1;" vertex="1" parent="YWtjegUGBLc0cIIiLabK-1">
                    <mxGeometry x="680" y="200" width="120" height="40" as="geometry"/>
                </mxCell>
                <mxCell id="bbGmwCBVAF5unC0VcgnG-27" value="" style="edgeStyle=none;html=1;" edge="1" parent="YWtjegUGBLc0cIIiLabK-1" source="bbGmwCBVAF5unC0VcgnG-15" target="bbGmwCBVAF5unC0VcgnG-26">
                    <mxGeometry relative="1" as="geometry"/>
                </mxCell>
                <mxCell id="bbGmwCBVAF5unC0VcgnG-29" style="edgeStyle=none;html=1;entryX=0.5;entryY=0;entryDx=0;entryDy=0;" edge="1" parent="YWtjegUGBLc0cIIiLabK-1" source="bbGmwCBVAF5unC0VcgnG-15" target="bbGmwCBVAF5unC0VcgnG-28">
                    <mxGeometry relative="1" as="geometry"/>
                </mxCell>
                <mxCell id="HsnUc9X1LhruCR804_y6-2" style="edgeStyle=none;html=1;entryX=0.5;entryY=0;entryDx=0;entryDy=0;" edge="1" parent="YWtjegUGBLc0cIIiLabK-1" source="bbGmwCBVAF5unC0VcgnG-15" target="HsnUc9X1LhruCR804_y6-0">
                    <mxGeometry relative="1" as="geometry"/>
                </mxCell>
                <mxCell id="bbGmwCBVAF5unC0VcgnG-15" value="exp" style="rounded=0;whiteSpace=wrap;html=1;" vertex="1" parent="YWtjegUGBLc0cIIiLabK-1">
                    <mxGeometry x="360" y="280" width="120" height="40" as="geometry"/>
                </mxCell>
                <mxCell id="bbGmwCBVAF5unC0VcgnG-16" value=")" style="ellipse;whiteSpace=wrap;html=1;aspect=fixed;" vertex="1" parent="YWtjegUGBLc0cIIiLabK-1">
                    <mxGeometry x="520" y="280" width="40" height="40" as="geometry"/>
                </mxCell>
                <mxCell id="bbGmwCBVAF5unC0VcgnG-17" value="(" style="ellipse;whiteSpace=wrap;html=1;aspect=fixed;" vertex="1" parent="YWtjegUGBLc0cIIiLabK-1">
                    <mxGeometry x="280" y="280" width="40" height="40" as="geometry"/>
                </mxCell>
                <mxCell id="bbGmwCBVAF5unC0VcgnG-38" value="" style="edgeStyle=none;html=1;" edge="1" parent="YWtjegUGBLc0cIIiLabK-1" source="bbGmwCBVAF5unC0VcgnG-21" target="bbGmwCBVAF5unC0VcgnG-23">
                    <mxGeometry relative="1" as="geometry"/>
                </mxCell>
                <mxCell id="bbGmwCBVAF5unC0VcgnG-21" value="numero" style="rounded=0;whiteSpace=wrap;html=1;" vertex="1" parent="YWtjegUGBLc0cIIiLabK-1">
                    <mxGeometry x="680" y="280" width="120" height="40" as="geometry"/>
                </mxCell>
                <mxCell id="bbGmwCBVAF5unC0VcgnG-23" value="42" style="rounded=0;whiteSpace=wrap;html=1;" vertex="1" parent="YWtjegUGBLc0cIIiLabK-1">
                    <mxGeometry x="680" y="360" width="120" height="40" as="geometry"/>
                </mxCell>
                <mxCell id="bbGmwCBVAF5unC0VcgnG-33" value="" style="edgeStyle=none;html=1;" edge="1" parent="YWtjegUGBLc0cIIiLabK-1" source="bbGmwCBVAF5unC0VcgnG-24" target="bbGmwCBVAF5unC0VcgnG-32">
                    <mxGeometry relative="1" as="geometry"/>
                </mxCell>
                <mxCell id="bbGmwCBVAF5unC0VcgnG-24" value="factor" style="rounded=0;whiteSpace=wrap;html=1;" vertex="1" parent="YWtjegUGBLc0cIIiLabK-1">
                    <mxGeometry x="480" y="440" width="120" height="40" as="geometry"/>
                </mxCell>
                <mxCell id="bbGmwCBVAF5unC0VcgnG-26" value="-" style="ellipse;whiteSpace=wrap;html=1;aspect=fixed;" vertex="1" parent="YWtjegUGBLc0cIIiLabK-1">
                    <mxGeometry x="400" y="360" width="40" height="40" as="geometry"/>
                </mxCell>
                <mxCell id="bbGmwCBVAF5unC0VcgnG-31" value="" style="edgeStyle=none;html=1;" edge="1" parent="YWtjegUGBLc0cIIiLabK-1" source="bbGmwCBVAF5unC0VcgnG-28" target="bbGmwCBVAF5unC0VcgnG-30">
                    <mxGeometry relative="1" as="geometry"/>
                </mxCell>
                <mxCell id="bbGmwCBVAF5unC0VcgnG-28" value="exp" style="rounded=0;whiteSpace=wrap;html=1;" vertex="1" parent="YWtjegUGBLc0cIIiLabK-1">
                    <mxGeometry x="240" y="360" width="120" height="40" as="geometry"/>
                </mxCell>
                <mxCell id="bbGmwCBVAF5unC0VcgnG-37" value="" style="edgeStyle=none;html=1;" edge="1" parent="YWtjegUGBLc0cIIiLabK-1" source="bbGmwCBVAF5unC0VcgnG-30" target="bbGmwCBVAF5unC0VcgnG-35">
                    <mxGeometry relative="1" as="geometry"/>
                </mxCell>
                <mxCell id="bbGmwCBVAF5unC0VcgnG-30" value="term" style="rounded=0;whiteSpace=wrap;html=1;" vertex="1" parent="YWtjegUGBLc0cIIiLabK-1">
                    <mxGeometry x="240" y="440" width="120" height="40" as="geometry"/>
                </mxCell>
                <mxCell id="bbGmwCBVAF5unC0VcgnG-42" value="" style="edgeStyle=none;html=1;" edge="1" parent="YWtjegUGBLc0cIIiLabK-1" source="bbGmwCBVAF5unC0VcgnG-32" target="bbGmwCBVAF5unC0VcgnG-39">
                    <mxGeometry relative="1" as="geometry"/>
                </mxCell>
                <mxCell id="bbGmwCBVAF5unC0VcgnG-32" value="numero" style="rounded=0;whiteSpace=wrap;html=1;" vertex="1" parent="YWtjegUGBLc0cIIiLabK-1">
                    <mxGeometry x="480" y="520" width="120" height="40" as="geometry"/>
                </mxCell>
                <mxCell id="bbGmwCBVAF5unC0VcgnG-34" value="" style="edgeStyle=none;html=1;" edge="1" parent="YWtjegUGBLc0cIIiLabK-1" source="bbGmwCBVAF5unC0VcgnG-35" target="bbGmwCBVAF5unC0VcgnG-36">
                    <mxGeometry relative="1" as="geometry"/>
                </mxCell>
                <mxCell id="bbGmwCBVAF5unC0VcgnG-35" value="factor" style="rounded=0;whiteSpace=wrap;html=1;" vertex="1" parent="YWtjegUGBLc0cIIiLabK-1">
                    <mxGeometry x="240" y="520" width="120" height="40" as="geometry"/>
                </mxCell>
                <mxCell id="bbGmwCBVAF5unC0VcgnG-41" value="" style="edgeStyle=none;html=1;" edge="1" parent="YWtjegUGBLc0cIIiLabK-1" source="bbGmwCBVAF5unC0VcgnG-36" target="bbGmwCBVAF5unC0VcgnG-40">
                    <mxGeometry relative="1" as="geometry"/>
                </mxCell>
                <mxCell id="bbGmwCBVAF5unC0VcgnG-36" value="numero" style="rounded=0;whiteSpace=wrap;html=1;" vertex="1" parent="YWtjegUGBLc0cIIiLabK-1">
                    <mxGeometry x="240" y="600" width="120" height="40" as="geometry"/>
                </mxCell>
                <mxCell id="bbGmwCBVAF5unC0VcgnG-39" value="3" style="rounded=0;whiteSpace=wrap;html=1;" vertex="1" parent="YWtjegUGBLc0cIIiLabK-1">
                    <mxGeometry x="480" y="600" width="120" height="40" as="geometry"/>
                </mxCell>
                <mxCell id="bbGmwCBVAF5unC0VcgnG-40" value="34" style="rounded=0;whiteSpace=wrap;html=1;" vertex="1" parent="YWtjegUGBLc0cIIiLabK-1">
                    <mxGeometry x="240" y="680" width="120" height="40" as="geometry"/>
                </mxCell>
                <mxCell id="HsnUc9X1LhruCR804_y6-1" value="" style="edgeStyle=none;html=1;" edge="1" parent="YWtjegUGBLc0cIIiLabK-1" source="HsnUc9X1LhruCR804_y6-0" target="bbGmwCBVAF5unC0VcgnG-24">
                    <mxGeometry relative="1" as="geometry"/>
                </mxCell>
                <mxCell id="HsnUc9X1LhruCR804_y6-0" value="term" style="rounded=0;whiteSpace=wrap;html=1;" vertex="1" parent="YWtjegUGBLc0cIIiLabK-1">
                    <mxGeometry x="480" y="360" width="120" height="40" as="geometry"/>
                </mxCell>
            </root>
        </mxGraphModel>
    </diagram>
    <diagram id="NeNCf8vipBOgigW2fcit" name="1004567">
        <mxGraphModel dx="1446" dy="369" grid="1" gridSize="10" guides="1" tooltips="1" connect="1" arrows="1" fold="1" page="1" pageScale="1" pageWidth="827" pageHeight="1169" math="0" shadow="0">
            <root>
                <mxCell id="0"/>
                <mxCell id="1" parent="0"/>
                <mxCell id="9" style="edgeStyle=none;html=1;entryX=0.5;entryY=0;entryDx=0;entryDy=0;" edge="1" parent="1" source="5" target="8">
                    <mxGeometry relative="1" as="geometry"/>
                </mxCell>
                <mxCell id="10" style="edgeStyle=none;html=1;entryX=0.5;entryY=0;entryDx=0;entryDy=0;" edge="1" parent="1" source="5" target="7">
                    <mxGeometry relative="1" as="geometry"/>
                </mxCell>
                <mxCell id="5" value="numero.val = 100456 * 10^6 + 7" style="rounded=0;whiteSpace=wrap;html=1;" vertex="1" parent="1">
                    <mxGeometry x="510" y="40" width="254" height="60" as="geometry"/>
                </mxCell>
                <mxCell id="12" style="edgeStyle=none;html=1;entryX=0.5;entryY=0;entryDx=0;entryDy=0;" edge="1" parent="1" source="7" target="11">
                    <mxGeometry relative="1" as="geometry"/>
                </mxCell>
                <mxCell id="14" style="edgeStyle=none;html=1;entryX=0.5;entryY=0;entryDx=0;entryDy=0;" edge="1" parent="1" source="7" target="13">
                    <mxGeometry relative="1" as="geometry"/>
                </mxCell>
                <mxCell id="7" value="numero.val = 10045 * 10^5 + 6" style="rounded=0;whiteSpace=wrap;html=1;" vertex="1" parent="1">
                    <mxGeometry x="390" y="160" width="254" height="60" as="geometry"/>
                </mxCell>
                <mxCell id="50" style="edgeStyle=none;html=1;entryX=0.5;entryY=0;entryDx=0;entryDy=0;" edge="1" parent="1" source="8" target="49">
                    <mxGeometry relative="1" as="geometry"/>
                </mxCell>
                <mxCell id="8" value="digito.val = 7" style="rounded=0;whiteSpace=wrap;html=1;" vertex="1" parent="1">
                    <mxGeometry x="680" y="160" width="120" height="40" as="geometry"/>
                </mxCell>
                <mxCell id="48" style="edgeStyle=none;html=1;" edge="1" parent="1" source="11" target="47">
                    <mxGeometry relative="1" as="geometry"/>
                </mxCell>
                <mxCell id="11" value="digito.val = 6" style="rounded=0;whiteSpace=wrap;html=1;" vertex="1" parent="1">
                    <mxGeometry x="560" y="280" width="120" height="40" as="geometry"/>
                </mxCell>
                <mxCell id="16" style="edgeStyle=none;html=1;entryX=0.5;entryY=0;entryDx=0;entryDy=0;" edge="1" parent="1" source="13" target="15">
                    <mxGeometry relative="1" as="geometry"/>
                </mxCell>
                <mxCell id="18" style="edgeStyle=none;html=1;entryX=0.5;entryY=0;entryDx=0;entryDy=0;" edge="1" parent="1" source="13" target="17">
                    <mxGeometry relative="1" as="geometry"/>
                </mxCell>
                <mxCell id="13" value="numero.val = 1004 * 10^4 + 5" style="rounded=0;whiteSpace=wrap;html=1;" vertex="1" parent="1">
                    <mxGeometry x="270" y="280" width="254" height="60" as="geometry"/>
                </mxCell>
                <mxCell id="46" style="edgeStyle=none;html=1;entryX=0.5;entryY=0;entryDx=0;entryDy=0;" edge="1" parent="1" source="15" target="45">
                    <mxGeometry relative="1" as="geometry"/>
                </mxCell>
                <mxCell id="15" value="digito.val = 5" style="rounded=0;whiteSpace=wrap;html=1;" vertex="1" parent="1">
                    <mxGeometry x="440" y="400" width="120" height="40" as="geometry"/>
                </mxCell>
                <mxCell id="20" style="edgeStyle=none;html=1;entryX=0.5;entryY=0;entryDx=0;entryDy=0;" edge="1" parent="1" source="17" target="19">
                    <mxGeometry relative="1" as="geometry"/>
                </mxCell>
                <mxCell id="22" style="edgeStyle=none;html=1;entryX=0.5;entryY=0;entryDx=0;entryDy=0;" edge="1" parent="1" source="17" target="21">
                    <mxGeometry relative="1" as="geometry"/>
                </mxCell>
                <mxCell id="17" value="numero.val = 100 * 10^3 + 4" style="rounded=0;whiteSpace=wrap;html=1;" vertex="1" parent="1">
                    <mxGeometry x="150" y="400" width="254" height="60" as="geometry"/>
                </mxCell>
                <mxCell id="44" style="edgeStyle=none;html=1;entryX=0.5;entryY=0;entryDx=0;entryDy=0;" edge="1" parent="1" source="19" target="43">
                    <mxGeometry relative="1" as="geometry"/>
                </mxCell>
                <mxCell id="19" value="digito.val = 4" style="rounded=0;whiteSpace=wrap;html=1;" vertex="1" parent="1">
                    <mxGeometry x="320" y="520" width="120" height="40" as="geometry"/>
                </mxCell>
                <mxCell id="24" style="edgeStyle=none;html=1;entryX=0.5;entryY=0;entryDx=0;entryDy=0;" edge="1" parent="1" source="21" target="23">
                    <mxGeometry relative="1" as="geometry"/>
                </mxCell>
                <mxCell id="26" style="edgeStyle=none;html=1;entryX=0.5;entryY=0;entryDx=0;entryDy=0;" edge="1" parent="1" source="21" target="25">
                    <mxGeometry relative="1" as="geometry"/>
                </mxCell>
                <mxCell id="21" value="numero.val = 10 * 10^2 + 0" style="rounded=0;whiteSpace=wrap;html=1;" vertex="1" parent="1">
                    <mxGeometry x="30" y="520" width="254" height="60" as="geometry"/>
                </mxCell>
                <mxCell id="42" style="edgeStyle=none;html=1;entryX=0.5;entryY=0;entryDx=0;entryDy=0;" edge="1" parent="1" source="23" target="41">
                    <mxGeometry relative="1" as="geometry"/>
                </mxCell>
                <mxCell id="23" value="digito.val = 0" style="rounded=0;whiteSpace=wrap;html=1;" vertex="1" parent="1">
                    <mxGeometry x="200" y="640" width="120" height="40" as="geometry"/>
                </mxCell>
                <mxCell id="28" style="edgeStyle=none;html=1;entryX=0.5;entryY=0;entryDx=0;entryDy=0;" edge="1" parent="1" source="25" target="27">
                    <mxGeometry relative="1" as="geometry"/>
                </mxCell>
                <mxCell id="30" style="edgeStyle=none;html=1;entryX=0.5;entryY=0;entryDx=0;entryDy=0;" edge="1" parent="1" source="25" target="29">
                    <mxGeometry relative="1" as="geometry"/>
                </mxCell>
                <mxCell id="25" value="numero.val = 1 * 10^1 + 0" style="rounded=0;whiteSpace=wrap;html=1;" vertex="1" parent="1">
                    <mxGeometry x="-93" y="640" width="254" height="60" as="geometry"/>
                </mxCell>
                <mxCell id="39" style="edgeStyle=none;html=1;entryX=0.5;entryY=0;entryDx=0;entryDy=0;" edge="1" parent="1" source="27" target="38">
                    <mxGeometry relative="1" as="geometry"/>
                </mxCell>
                <mxCell id="27" value="digito.val = 0" style="rounded=0;whiteSpace=wrap;html=1;" vertex="1" parent="1">
                    <mxGeometry x="80" y="760" width="120" height="40" as="geometry"/>
                </mxCell>
                <mxCell id="32" style="edgeStyle=none;html=1;" edge="1" parent="1" source="29" target="31">
                    <mxGeometry relative="1" as="geometry"/>
                </mxCell>
                <mxCell id="29" value="numero.val = 1" style="rounded=0;whiteSpace=wrap;html=1;" vertex="1" parent="1">
                    <mxGeometry x="-120" y="760" width="120" height="40" as="geometry"/>
                </mxCell>
                <mxCell id="37" style="edgeStyle=none;html=1;entryX=0.5;entryY=0;entryDx=0;entryDy=0;" edge="1" parent="1" source="31" target="36">
                    <mxGeometry relative="1" as="geometry"/>
                </mxCell>
                <mxCell id="31" value="digito.val = 1" style="rounded=0;whiteSpace=wrap;html=1;" vertex="1" parent="1">
                    <mxGeometry x="-120" y="880" width="120" height="40" as="geometry"/>
                </mxCell>
                <mxCell id="36" value="1" style="ellipse;whiteSpace=wrap;html=1;aspect=fixed;" vertex="1" parent="1">
                    <mxGeometry x="-80" y="1000" width="40" height="40" as="geometry"/>
                </mxCell>
                <mxCell id="38" value="0" style="ellipse;whiteSpace=wrap;html=1;aspect=fixed;" vertex="1" parent="1">
                    <mxGeometry x="120" y="880" width="40" height="40" as="geometry"/>
                </mxCell>
                <mxCell id="41" value="0" style="ellipse;whiteSpace=wrap;html=1;aspect=fixed;" vertex="1" parent="1">
                    <mxGeometry x="240" y="760" width="40" height="40" as="geometry"/>
                </mxCell>
                <mxCell id="43" value="4" style="ellipse;whiteSpace=wrap;html=1;aspect=fixed;" vertex="1" parent="1">
                    <mxGeometry x="360" y="640" width="40" height="40" as="geometry"/>
                </mxCell>
                <mxCell id="45" value="5" style="ellipse;whiteSpace=wrap;html=1;aspect=fixed;" vertex="1" parent="1">
                    <mxGeometry x="480" y="520" width="40" height="40" as="geometry"/>
                </mxCell>
                <mxCell id="47" value="6" style="ellipse;whiteSpace=wrap;html=1;aspect=fixed;" vertex="1" parent="1">
                    <mxGeometry x="600" y="400" width="40" height="40" as="geometry"/>
                </mxCell>
                <mxCell id="49" value="7" style="ellipse;whiteSpace=wrap;html=1;aspect=fixed;" vertex="1" parent="1">
                    <mxGeometry x="720" y="280" width="40" height="40" as="geometry"/>
                </mxCell>
            </root>
        </mxGraphModel>
    </diagram>
    <diagram id="5JSEj4_BlbRXjscfn7vK" name="987700">
        <mxGraphModel dx="393" dy="234" grid="1" gridSize="10" guides="1" tooltips="1" connect="1" arrows="1" fold="1" page="1" pageScale="1" pageWidth="827" pageHeight="1169" math="0" shadow="0">
            <root>
                <mxCell id="ozwp8r3FKZKoYQDjS67R-0"/>
                <mxCell id="ozwp8r3FKZKoYQDjS67R-1" parent="ozwp8r3FKZKoYQDjS67R-0"/>
                <mxCell id="ZTuMC26i21HgR95qbaj0-3" style="edgeStyle=none;html=1;entryX=0.5;entryY=0;entryDx=0;entryDy=0;" edge="1" parent="ozwp8r3FKZKoYQDjS67R-1" source="ZTuMC26i21HgR95qbaj0-5" target="ZTuMC26i21HgR95qbaj0-9">
                    <mxGeometry relative="1" as="geometry"/>
                </mxCell>
                <mxCell id="ZTuMC26i21HgR95qbaj0-4" style="edgeStyle=none;html=1;entryX=0.5;entryY=0;entryDx=0;entryDy=0;" edge="1" parent="ozwp8r3FKZKoYQDjS67R-1" source="ZTuMC26i21HgR95qbaj0-5" target="ZTuMC26i21HgR95qbaj0-12">
                    <mxGeometry relative="1" as="geometry"/>
                </mxCell>
                <mxCell id="ZTuMC26i21HgR95qbaj0-5" value="numero.val = 98770 * 10^5 + 0" style="rounded=0;whiteSpace=wrap;html=1;" vertex="1" parent="ozwp8r3FKZKoYQDjS67R-1">
                    <mxGeometry x="524" y="40" width="254" height="60" as="geometry"/>
                </mxCell>
                <mxCell id="ZTuMC26i21HgR95qbaj0-8" style="edgeStyle=none;html=1;" edge="1" parent="ozwp8r3FKZKoYQDjS67R-1" source="ZTuMC26i21HgR95qbaj0-9" target="ZTuMC26i21HgR95qbaj0-39">
                    <mxGeometry relative="1" as="geometry"/>
                </mxCell>
                <mxCell id="ZTuMC26i21HgR95qbaj0-9" value="digito.val = 0" style="rounded=0;whiteSpace=wrap;html=1;" vertex="1" parent="ozwp8r3FKZKoYQDjS67R-1">
                    <mxGeometry x="694" y="160" width="120" height="40" as="geometry"/>
                </mxCell>
                <mxCell id="ZTuMC26i21HgR95qbaj0-10" style="edgeStyle=none;html=1;entryX=0.5;entryY=0;entryDx=0;entryDy=0;" edge="1" parent="ozwp8r3FKZKoYQDjS67R-1" source="ZTuMC26i21HgR95qbaj0-12" target="ZTuMC26i21HgR95qbaj0-14">
                    <mxGeometry relative="1" as="geometry"/>
                </mxCell>
                <mxCell id="ZTuMC26i21HgR95qbaj0-11" style="edgeStyle=none;html=1;entryX=0.5;entryY=0;entryDx=0;entryDy=0;" edge="1" parent="ozwp8r3FKZKoYQDjS67R-1" source="ZTuMC26i21HgR95qbaj0-12" target="ZTuMC26i21HgR95qbaj0-17">
                    <mxGeometry relative="1" as="geometry"/>
                </mxCell>
                <mxCell id="ZTuMC26i21HgR95qbaj0-12" value="numero.val = 9877 * 10^4 + 0" style="rounded=0;whiteSpace=wrap;html=1;" vertex="1" parent="ozwp8r3FKZKoYQDjS67R-1">
                    <mxGeometry x="404" y="160" width="254" height="60" as="geometry"/>
                </mxCell>
                <mxCell id="ZTuMC26i21HgR95qbaj0-13" style="edgeStyle=none;html=1;entryX=0.5;entryY=0;entryDx=0;entryDy=0;" edge="1" parent="ozwp8r3FKZKoYQDjS67R-1" source="ZTuMC26i21HgR95qbaj0-14" target="ZTuMC26i21HgR95qbaj0-38">
                    <mxGeometry relative="1" as="geometry"/>
                </mxCell>
                <mxCell id="ZTuMC26i21HgR95qbaj0-14" value="digito.val = 0" style="rounded=0;whiteSpace=wrap;html=1;" vertex="1" parent="ozwp8r3FKZKoYQDjS67R-1">
                    <mxGeometry x="574" y="280" width="120" height="40" as="geometry"/>
                </mxCell>
                <mxCell id="ZTuMC26i21HgR95qbaj0-15" style="edgeStyle=none;html=1;entryX=0.5;entryY=0;entryDx=0;entryDy=0;" edge="1" parent="ozwp8r3FKZKoYQDjS67R-1" source="ZTuMC26i21HgR95qbaj0-17" target="ZTuMC26i21HgR95qbaj0-19">
                    <mxGeometry relative="1" as="geometry"/>
                </mxCell>
                <mxCell id="ZTuMC26i21HgR95qbaj0-16" style="edgeStyle=none;html=1;entryX=0.5;entryY=0;entryDx=0;entryDy=0;" edge="1" parent="ozwp8r3FKZKoYQDjS67R-1" source="ZTuMC26i21HgR95qbaj0-17" target="ZTuMC26i21HgR95qbaj0-22">
                    <mxGeometry relative="1" as="geometry"/>
                </mxCell>
                <mxCell id="ZTuMC26i21HgR95qbaj0-17" value="numero.val = 987 * 10^3 + 4" style="rounded=0;whiteSpace=wrap;html=1;" vertex="1" parent="ozwp8r3FKZKoYQDjS67R-1">
                    <mxGeometry x="284" y="280" width="254" height="60" as="geometry"/>
                </mxCell>
                <mxCell id="ZTuMC26i21HgR95qbaj0-18" style="edgeStyle=none;html=1;entryX=0.5;entryY=0;entryDx=0;entryDy=0;" edge="1" parent="ozwp8r3FKZKoYQDjS67R-1" source="ZTuMC26i21HgR95qbaj0-19" target="ZTuMC26i21HgR95qbaj0-37">
                    <mxGeometry relative="1" as="geometry"/>
                </mxCell>
                <mxCell id="ZTuMC26i21HgR95qbaj0-19" value="digito.val = 7" style="rounded=0;whiteSpace=wrap;html=1;" vertex="1" parent="ozwp8r3FKZKoYQDjS67R-1">
                    <mxGeometry x="454" y="400" width="120" height="40" as="geometry"/>
                </mxCell>
                <mxCell id="ZTuMC26i21HgR95qbaj0-20" style="edgeStyle=none;html=1;entryX=0.5;entryY=0;entryDx=0;entryDy=0;" edge="1" parent="ozwp8r3FKZKoYQDjS67R-1" source="ZTuMC26i21HgR95qbaj0-22" target="ZTuMC26i21HgR95qbaj0-24">
                    <mxGeometry relative="1" as="geometry"/>
                </mxCell>
                <mxCell id="ZTuMC26i21HgR95qbaj0-21" style="edgeStyle=none;html=1;entryX=0.5;entryY=0;entryDx=0;entryDy=0;" edge="1" parent="ozwp8r3FKZKoYQDjS67R-1" source="ZTuMC26i21HgR95qbaj0-22" target="ZTuMC26i21HgR95qbaj0-27">
                    <mxGeometry relative="1" as="geometry"/>
                </mxCell>
                <mxCell id="ZTuMC26i21HgR95qbaj0-22" value="numero.val = 98 * 10^2 + 7" style="rounded=0;whiteSpace=wrap;html=1;" vertex="1" parent="ozwp8r3FKZKoYQDjS67R-1">
                    <mxGeometry x="164" y="400" width="254" height="60" as="geometry"/>
                </mxCell>
                <mxCell id="ZTuMC26i21HgR95qbaj0-23" style="edgeStyle=none;html=1;entryX=0.5;entryY=0;entryDx=0;entryDy=0;" edge="1" parent="ozwp8r3FKZKoYQDjS67R-1" source="ZTuMC26i21HgR95qbaj0-24" target="ZTuMC26i21HgR95qbaj0-36">
                    <mxGeometry relative="1" as="geometry"/>
                </mxCell>
                <mxCell id="ZTuMC26i21HgR95qbaj0-24" value="digito.val = 7" style="rounded=0;whiteSpace=wrap;html=1;" vertex="1" parent="ozwp8r3FKZKoYQDjS67R-1">
                    <mxGeometry x="334" y="520" width="120" height="40" as="geometry"/>
                </mxCell>
                <mxCell id="ZTuMC26i21HgR95qbaj0-25" style="edgeStyle=none;html=1;entryX=0.5;entryY=0;entryDx=0;entryDy=0;" edge="1" parent="ozwp8r3FKZKoYQDjS67R-1" source="ZTuMC26i21HgR95qbaj0-27" target="ZTuMC26i21HgR95qbaj0-29">
                    <mxGeometry relative="1" as="geometry"/>
                </mxCell>
                <mxCell id="ZTuMC26i21HgR95qbaj0-26" style="edgeStyle=none;html=1;entryX=0.5;entryY=0;entryDx=0;entryDy=0;" edge="1" parent="ozwp8r3FKZKoYQDjS67R-1" source="ZTuMC26i21HgR95qbaj0-27" target="ZTuMC26i21HgR95qbaj0-31">
                    <mxGeometry relative="1" as="geometry"/>
                </mxCell>
                <mxCell id="ZTuMC26i21HgR95qbaj0-27" value="numero.val = 9 * 10^1 + 8" style="rounded=0;whiteSpace=wrap;html=1;" vertex="1" parent="ozwp8r3FKZKoYQDjS67R-1">
                    <mxGeometry x="41" y="520" width="254" height="60" as="geometry"/>
                </mxCell>
                <mxCell id="ZTuMC26i21HgR95qbaj0-28" style="edgeStyle=none;html=1;entryX=0.5;entryY=0;entryDx=0;entryDy=0;" edge="1" parent="ozwp8r3FKZKoYQDjS67R-1" source="ZTuMC26i21HgR95qbaj0-29" target="ZTuMC26i21HgR95qbaj0-35">
                    <mxGeometry relative="1" as="geometry"/>
                </mxCell>
                <mxCell id="ZTuMC26i21HgR95qbaj0-29" value="digito.val = 8" style="rounded=0;whiteSpace=wrap;html=1;" vertex="1" parent="ozwp8r3FKZKoYQDjS67R-1">
                    <mxGeometry x="214" y="640" width="120" height="40" as="geometry"/>
                </mxCell>
                <mxCell id="ZTuMC26i21HgR95qbaj0-30" style="edgeStyle=none;html=1;" edge="1" parent="ozwp8r3FKZKoYQDjS67R-1" source="ZTuMC26i21HgR95qbaj0-31" target="ZTuMC26i21HgR95qbaj0-33">
                    <mxGeometry relative="1" as="geometry"/>
                </mxCell>
                <mxCell id="ZTuMC26i21HgR95qbaj0-31" value="numero.val = 9" style="rounded=0;whiteSpace=wrap;html=1;" vertex="1" parent="ozwp8r3FKZKoYQDjS67R-1">
                    <mxGeometry x="14" y="640" width="120" height="40" as="geometry"/>
                </mxCell>
                <mxCell id="ZTuMC26i21HgR95qbaj0-32" style="edgeStyle=none;html=1;entryX=0.5;entryY=0;entryDx=0;entryDy=0;" edge="1" parent="ozwp8r3FKZKoYQDjS67R-1" source="ZTuMC26i21HgR95qbaj0-33" target="ZTuMC26i21HgR95qbaj0-34">
                    <mxGeometry relative="1" as="geometry"/>
                </mxCell>
                <mxCell id="ZTuMC26i21HgR95qbaj0-33" value="digito.val = 9" style="rounded=0;whiteSpace=wrap;html=1;" vertex="1" parent="ozwp8r3FKZKoYQDjS67R-1">
                    <mxGeometry x="14" y="760" width="120" height="40" as="geometry"/>
                </mxCell>
                <mxCell id="ZTuMC26i21HgR95qbaj0-34" value="9" style="ellipse;whiteSpace=wrap;html=1;aspect=fixed;" vertex="1" parent="ozwp8r3FKZKoYQDjS67R-1">
                    <mxGeometry x="54" y="880" width="40" height="40" as="geometry"/>
                </mxCell>
                <mxCell id="ZTuMC26i21HgR95qbaj0-35" value="8" style="ellipse;whiteSpace=wrap;html=1;aspect=fixed;" vertex="1" parent="ozwp8r3FKZKoYQDjS67R-1">
                    <mxGeometry x="254" y="760" width="40" height="40" as="geometry"/>
                </mxCell>
                <mxCell id="ZTuMC26i21HgR95qbaj0-36" value="7" style="ellipse;whiteSpace=wrap;html=1;aspect=fixed;" vertex="1" parent="ozwp8r3FKZKoYQDjS67R-1">
                    <mxGeometry x="374" y="640" width="40" height="40" as="geometry"/>
                </mxCell>
                <mxCell id="ZTuMC26i21HgR95qbaj0-37" value="7" style="ellipse;whiteSpace=wrap;html=1;aspect=fixed;" vertex="1" parent="ozwp8r3FKZKoYQDjS67R-1">
                    <mxGeometry x="494" y="520" width="40" height="40" as="geometry"/>
                </mxCell>
                <mxCell id="ZTuMC26i21HgR95qbaj0-38" value="0" style="ellipse;whiteSpace=wrap;html=1;aspect=fixed;" vertex="1" parent="ozwp8r3FKZKoYQDjS67R-1">
                    <mxGeometry x="614" y="400" width="40" height="40" as="geometry"/>
                </mxCell>
                <mxCell id="ZTuMC26i21HgR95qbaj0-39" value="0" style="ellipse;whiteSpace=wrap;html=1;aspect=fixed;" vertex="1" parent="ozwp8r3FKZKoYQDjS67R-1">
                    <mxGeometry x="734" y="280" width="40" height="40" as="geometry"/>
                </mxCell>
            </root>
        </mxGraphModel>
    </diagram>
</mxfile>